<svg xmlns="http://www.w3.org/2000/svg" width="30" height="31" viewBox="0 0 30 31" fill="none">
  <mask id="mask0_182_166" style="mask-type:alpha" maskUnits="userSpaceOnUse" x="0" y="0" width="30" height="31">
    <rect y="30.7632" width="30" height="30" transform="rotate(-90 0 30.7632)" fill="#D9D9D9"/>
  </mask>
  <g mask="url(#mask0_182_166)">
    <path d="M27.375 15.7632C27.375 15.9298 27.3437 16.0861 27.2812 16.2319C27.2187 16.3778 27.125 16.5132 27 16.6382L20.0312 23.6382C19.8021 23.8673 19.5104 23.9819 19.1562 23.9819C18.8021 23.9819 18.5 23.8673 18.25 23.6382C18 23.3882 17.875 23.0913 17.875 22.7476C17.875 22.4038 18 22.1069 18.25 21.8569L23.125 17.0132L15.4062 17.0132C15.0521 17.0132 14.7552 16.8934 14.5156 16.6538C14.276 16.4142 14.1562 16.1173 14.1562 15.7632C14.1562 15.409 14.276 15.1121 14.5156 14.8726C14.7552 14.633 15.0521 14.5132 15.4062 14.5132L23.125 14.5132L18.25 9.63818C18.0208 9.40902 17.9062 9.12256 17.9062 8.77881C17.9062 8.43506 18.0312 8.13818 18.2812 7.88818C18.5104 7.65902 18.8021 7.54443 19.1562 7.54443C19.5104 7.54443 19.8021 7.65902 20.0312 7.88818L27 14.8882C27.125 15.0132 27.2187 15.1486 27.2812 15.2944C27.3437 15.4403 27.375 15.5965 27.375 15.7632ZM11.6562 15.7632C11.6562 16.1173 11.5365 16.4142 11.2969 16.6538C11.0573 16.8934 10.7604 17.0132 10.4062 17.0132L9.15625 17.0132C8.80208 17.0132 8.50521 16.8934 8.26562 16.6538C8.02604 16.4142 7.90625 16.1173 7.90625 15.7632C7.90625 15.409 8.02604 15.1121 8.26562 14.8726C8.50521 14.633 8.80208 14.5132 9.15625 14.5132L10.4062 14.5132C10.7604 14.5132 11.0573 14.633 11.2969 14.8726C11.5365 15.1121 11.6562 15.409 11.6562 15.7632ZM5.40625 15.7632C5.40625 16.1173 5.28646 16.4142 5.04687 16.6538C4.80729 16.8934 4.51042 17.0132 4.15625 17.0132C3.80208 17.0132 3.50521 16.8934 3.26562 16.6538C3.02604 16.4142 2.90625 16.1174 2.90625 15.7632C2.90625 15.409 3.02604 15.1121 3.26562 14.8726C3.50521 14.633 3.80208 14.5132 4.15625 14.5132C4.51042 14.5132 4.80729 14.633 5.04687 14.8726C5.28646 15.1121 5.40625 15.409 5.40625 15.7632Z" fill="white"/>
  </g>
</svg>
