<svg width="20" height="20" viewBox="0 0 20 20" fill="none" xmlns="http://www.w3.org/2000/svg">
<mask id="mask0_222_249" style="mask-type:alpha" maskUnits="userSpaceOnUse" x="0" y="0" width="20" height="20">
<rect width="20" height="20" fill="#D9D9D9"/>
</mask>
<g mask="url(#mask0_222_249)">
<path d="M6.66699 11.666H11.667C11.9031 11.666 12.101 11.5862 12.2607 11.4264C12.4205 11.2667 12.5003 11.0688 12.5003 10.8327V9.16601L14.167 10.8327V5.83268L12.5003 7.49935V5.83268C12.5003 5.59657 12.4205 5.39865 12.2607 5.23893C12.101 5.07921 11.9031 4.99935 11.667 4.99935H6.66699C6.43088 4.99935 6.23296 5.07921 6.07324 5.23893C5.91352 5.39865 5.83366 5.59657 5.83366 5.83268V10.8327C5.83366 11.0688 5.91352 11.2667 6.07324 11.4264C6.23296 11.5862 6.43088 11.666 6.66699 11.666ZM1.66699 18.3327V3.33268C1.66699 2.87435 1.83019 2.48199 2.15658 2.1556C2.48296 1.82921 2.87533 1.66602 3.33366 1.66602H16.667C17.1253 1.66602 17.5177 1.82921 17.8441 2.1556C18.1705 2.48199 18.3337 2.87435 18.3337 3.33268V13.3327C18.3337 13.791 18.1705 14.1834 17.8441 14.5098C17.5177 14.8362 17.1253 14.9993 16.667 14.9993H5.00032L1.66699 18.3327ZM4.29199 13.3327H16.667V3.33268H3.33366V14.2702L4.29199 13.3327Z" fill="white"/>
</g>
</svg>
