<?xml version="1.0" encoding="utf-8"?>
<!-- Generator: Adobe Illustrator 26.1.0, SVG Export Plug-In . SVG Version: 6.00 Build 0)  -->
<svg version="1.1" id="Ebene_1" xmlns="http://www.w3.org/2000/svg" xmlns:xlink="http://www.w3.org/1999/xlink" x="0px" y="0px"
	 viewBox="0 0 50 50" style="enable-background:new 0 0 50 50;" xml:space="preserve">
<style type="text/css">
	.st0{fill:#FCB131;}
	.st1{fill:#D9A600;}
	.st2{fill:#E09424;}
	.st3{fill:#9B9B9B;}
	.st4{fill:#FFCB8D;}
</style>
<path class="st0" d="M38.8,20.5l-4.9,2.8c1.3-0.8,1.8-2.5,1-3.8c-0.8-1.3-2.5-1.8-3.8-1l-7.4,4.3l-4,2.3c0.9-0.5,1.5-1.3,1.8-2.3
	c0.2-1,0.1-2-0.4-2.9c-0.5-0.8-1.6-1.1-2.5-0.6L15.4,21l-4.5,2.6c-6.5,3.8-9.3,12.1-5.8,18.8c1.8,3.4,4.8,6,8.5,7s7.6,0.6,11-1.3
	l14.6-8.4c1.3-0.7,1.9-2.4,1.2-3.8c-0.4-0.7-1-1.2-1.7-1.4c-0.7-0.2-1.5-0.1-2.2,0.3l4.6-2.7c1.3-0.7,1.9-2.4,1.2-3.8
	c-0.4-0.7-1-1.2-1.7-1.4c-0.7-0.2-1.5-0.1-2.2,0.3l3.1-1.8c1.3-0.7,1.9-2.4,1.2-3.8c-0.4-0.7-1-1.2-1.7-1.4
	C40.3,20,39.5,20.1,38.8,20.5z"/>
<path class="st1" d="M33.6,24.5L22.2,31c-0.3,0.2-0.6,0.2-0.9,0c-0.3-0.2-0.4-0.4-0.4-0.8s0.2-0.6,0.4-0.8L32.7,23
	c0.4-0.2,1-0.1,1.2,0.3C34.1,23.7,34,24.2,33.6,24.5z"/>
<path class="st2" d="M36.1,36l-8.3,4.8c-0.3,0.2-0.6,0.2-0.9,0c-0.3-0.2-0.4-0.4-0.4-0.8s0.2-0.6,0.4-0.8l8.3-4.8
	c0.4-0.2,1-0.1,1.2,0.3C36.7,35.2,36.5,35.7,36.1,36z"/>
<path class="st2" d="M38,28.4l-13,7.5c-0.3,0.2-0.6,0.2-0.9,0c-0.3-0.2-0.4-0.4-0.4-0.8s0.2-0.6,0.4-0.8l13-7.5
	c0.4-0.2,1-0.1,1.2,0.3C38.6,27.6,38.4,28.2,38,28.4z"/>
<path class="st1" d="M19.5,26.2l-6.5,3.8c-0.4,0.2-1,0.1-1.2-0.3c-0.2-0.4-0.1-1,0.3-1.2l6.5-3.8c0.3-0.2,0.6-0.2,0.9,0
	c0.3,0.2,0.4,0.4,0.4,0.8C19.9,25.7,19.7,26,19.5,26.2z"/>
<g>
	<path class="st3" d="M43.4,10.1c-0.4,0-0.7-0.2-0.8-0.5c-0.1-0.3-0.1-0.7,0.2-1L48.5,3c0.2-0.2,0.5-0.3,0.9-0.2
		C49.6,2.8,49.9,3,50,3.3c0.1,0.3,0,0.6-0.2,0.9L44,9.9C43.9,10.1,43.6,10.1,43.4,10.1z"/>
	<path class="st3" d="M44.7,14.1c-0.4,0-0.7-0.3-0.8-0.6c-0.1-0.4,0.1-0.8,0.4-1l4.4-2.6c0.3-0.2,0.6-0.2,0.9,0
		c0.3,0.2,0.4,0.4,0.5,0.8c0,0.3-0.2,0.6-0.4,0.8L45.2,14C45,14,44.9,14.1,44.7,14.1z"/>
	<path class="st3" d="M39.5,9.7c-0.3,0-0.6-0.2-0.7-0.4s-0.2-0.6,0-0.9l2.6-5.3c0.2-0.4,0.7-0.6,1.2-0.4C42.9,3,43.1,3.5,42.9,4
		l-2.6,5.3C40.1,9.5,39.8,9.7,39.5,9.7z"/>
	<path class="st3" d="M19.3,8c-0.4,0-0.7-0.2-0.8-0.5l-2.6-6.1c-0.2-0.4,0-1,0.5-1.1c0.4-0.2,1,0,1.2,0.4l2.6,6.1
		C20.2,7,20.2,7.3,20,7.6C19.9,7.8,19.6,8,19.3,8z"/>
	<path class="st3" d="M22.8,8c-0.5,0-0.9-0.4-0.9-0.9V1.8c0-0.5,0.4-0.9,0.9-0.9s0.9,0.4,0.9,0.9v5.3C23.7,7.6,23.3,8,22.8,8z"/>
	<path class="st3" d="M15.8,9.7c-0.3,0-0.5-0.1-0.7-0.3L11.6,5c-0.3-0.4-0.2-0.9,0.1-1.2c0.4-0.3,0.9-0.2,1.2,0.1l3.5,4.4
		c0.2,0.3,0.3,0.6,0.1,0.9C16.5,9.5,16.1,9.7,15.8,9.7z"/>
</g>
<path class="st4" d="M30.5,12.7l-4,4c1.1-1.1,1.1-2.9,0-4s-2.9-1.1-4,0l-6,6c0.1-0.1-0.7,0.7-3.2,3.2c0.7-0.7,1.1-1.7,1.1-2.7
	c0-1-0.4-2-1.2-2.7c-0.7-0.7-1.9-0.6-2.6,0.1L8,19.3L4.3,23c-5.3,5.3-5.8,14-0.8,19.6c2.6,2.8,6.2,4.5,10,4.6
	c3.8,0.1,7.5-1.4,10.3-4.1l11.9-11.9c1.1-1.1,1.2-2.8,0.2-4c-0.5-0.6-1.2-0.9-2-0.9c-0.8,0-1.5,0.3-2.1,0.8l3.7-3.7
	c1.1-1.1,1.2-2.8,0.2-4c-0.5-0.6-1.2-0.9-2-0.9c-0.8,0-1.5,0.3-2.1,0.8l2.5-2.5c1.1-1.1,1.2-2.8,0.2-4c-0.5-0.6-1.2-0.9-2-0.9
	C31.8,11.9,31,12.2,30.5,12.7z"/>
<path class="st2" d="M26.5,18l-9.3,9.3c-0.3,0.3-0.9,0.3-1.2,0c-0.3-0.3-0.3-0.9,0-1.2l9.3-9.3c0.3-0.3,0.9-0.3,1.2,0
	C26.8,17.1,26.8,17.6,26.5,18z"/>
<path class="st2" d="M31.9,28.4l-6.7,6.7c-0.2,0.2-0.5,0.3-0.9,0.2c-0.3-0.1-0.5-0.3-0.6-0.6c-0.1-0.3,0-0.6,0.2-0.9l6.7-6.7
	c0.3-0.3,0.9-0.3,1.2,0C32.2,27.5,32.2,28.1,31.9,28.4z"/>
<path class="st2" d="M31.8,20.6L21.2,31.2c-0.3,0.3-0.9,0.3-1.2,0c-0.3-0.3-0.3-0.9,0-1.2l10.6-10.6c0.3-0.3,0.9-0.3,1.2,0
	C32.1,19.7,32.1,20.3,31.8,20.6z"/>
<path class="st2" d="M13.3,23.2L8,28.6c-0.3,0.3-0.9,0.3-1.2,0c-0.3-0.3-0.3-0.9,0-1.2L12,22c0.2-0.2,0.5-0.3,0.9-0.2
	c0.3,0.1,0.5,0.3,0.6,0.6C13.6,22.7,13.5,23,13.3,23.2L13.3,23.2z"/>
</svg>
