<?xml version="1.0" encoding="utf-8"?>
<!-- Generator: Adobe Illustrator 26.1.0, SVG Export Plug-In . SVG Version: 6.00 Build 0)  -->
<svg version="1.1" id="Ebene_1" xmlns="http://www.w3.org/2000/svg" xmlns:xlink="http://www.w3.org/1999/xlink" x="0px" y="0px"
	 viewBox="0 0 50 50" style="enable-background:new 0 0 50 50;" xml:space="preserve">
<style type="text/css">
	.st0{fill:#878787;}
</style>
<path class="st0" d="M39.7,5.2H10.3C4.6,5.2,0,9.8,0,15.5v15.8c0,4.5,3,8.4,7.3,9.7l5,5c0.3,0.3,0.6,0.4,1,0.4c0.4,0,0.8-0.2,1-0.4
	l4.5-4.5h20.9c5.7,0,10.3-4.6,10.3-10.3V15.5C50,9.8,45.4,5.2,39.7,5.2z M47.1,31.1c0,4-3.3,7.3-7.3,7.3H18.2c-0.4,0-0.8,0.2-1,0.4
	l-3.9,3.9l-4.2-4.2c-0.2-0.2-0.4-0.3-0.7-0.4c-3.2-0.8-5.4-3.7-5.4-7V15.5c0-4,3.3-7.3,7.3-7.3h29.5c4,0,7.3,3.3,7.3,7.3V31.1z"/>
<path class="st0" d="M34.3,19.2H15.7c-0.8,0-1.5,0.7-1.5,1.5c0,0.8,0.7,1.5,1.5,1.5h18.6c0.8,0,1.5-0.7,1.5-1.5
	C35.8,19.9,35.1,19.2,34.3,19.2z"/>
<path class="st0" d="M34.3,24.4H15.7c-0.8,0-1.5,0.7-1.5,1.5s0.7,1.5,1.5,1.5h18.6c0.8,0,1.5-0.7,1.5-1.5S35.1,24.4,34.3,24.4z"/>
</svg>
