<?xml version="1.0" encoding="utf-8"?>
<!-- Generator: Adobe Illustrator 26.1.0, SVG Export Plug-In . SVG Version: 6.00 Build 0)  -->
<svg version="1.1" id="Ebene_1" xmlns="http://www.w3.org/2000/svg" xmlns:xlink="http://www.w3.org/1999/xlink" x="0px" y="0px"
	 viewBox="0 0 50 50" style="enable-background:new 0 0 50 50;" xml:space="preserve">
<style type="text/css">
	.st0{fill:#FFCB8D;}
	.st1{fill:#29CCB1;}
	.st2{fill:#73C3FF;}
	.st3{fill:#9B9B9B;}
	.st4{fill:#FCB131;}
</style>
<path class="st0" d="M32.2,25.4H19.8c-0.7,0-1.2-0.4-1.4-1.1c-0.2-0.6,0.1-1.3,0.7-1.6c5.4-3.2,8.2-6.9,8.6-11.4
	c0.1-1.6,1.5-2.8,3.1-2.8c1.6,0,3.1,0.7,4.2,1.8c1.1,1.1,1.8,2.7,1.8,4.3l0,0v0.5c0,3.9-1.2,6.4-3.3,9.7
	C33.1,25.2,32.7,25.4,32.2,25.4z"/>
<path class="st0" d="M47.4,27.1c0-2.5-2-4.5-4.5-4.5H19.8c-0.3,0-0.5,0.1-0.7,0.2c-1.6,1-3.3,1.8-4.6,2.4c-0.5,0.2-0.9,0.4-1.3,0.6
	c-0.5,0.2-0.8,0.7-0.8,1.3v18.4c0,0.5,0.3,1,0.8,1.3C19,49.7,23.8,50,29.4,50c0.9,0,1.8,0,2.7,0c1,0,2.1,0,3.2,0h4.5
	c2.5,0,4.5-2,4.5-4.5c0-0.8-0.2-1.6-0.6-2.3c1.3-0.8,2.2-2.2,2.2-3.8c0-0.8-0.2-1.6-0.6-2.3c1.3-0.8,2.2-2.2,2.2-3.8
	c0-1.2-0.4-2.2-1.2-3C47,29.3,47.4,28.2,47.4,27.1z"/>
<g>
	<path class="st1" d="M44.5,14.5h-3.1c-0.8,0-1.4-0.6-1.4-1.4c0-0.8,0.6-1.4,1.4-1.4h3.1c0.8,0,1.4,0.6,1.4,1.4
		C45.9,13.9,45.2,14.5,44.5,14.5z"/>
	<path class="st1" d="M23,14.5h-3.1c-0.8,0-1.4-0.6-1.4-1.4c0-0.8,0.6-1.4,1.4-1.4H23c0.8,0,1.4,0.6,1.4,1.4
		C24.4,13.9,23.8,14.5,23,14.5z"/>
	<path class="st1" d="M27.6,6.5c-0.5,0-1-0.3-1.2-0.7l-1.5-2.7c-0.4-0.7-0.2-1.6,0.5-2c0.7-0.4,1.6-0.2,2,0.5l1.5,2.7
		c0.4,0.7,0.2,1.6-0.5,2C28.1,6.5,27.8,6.5,27.6,6.5z"/>
	<path class="st1" d="M36.8,6.5c-0.2,0-0.5-0.1-0.7-0.2c-0.7-0.4-0.9-1.3-0.5-2l1.5-2.7c0.4-0.7,1.3-0.9,2-0.5
		c0.7,0.4,0.9,1.3,0.5,2L38,5.8C37.8,6.3,37.3,6.5,36.8,6.5z"/>
</g>
<path id="SVGCleanerId_0" class="st2" d="M9.1,42.4V50H6.2v-7.6c0-0.8,0.6-1.4,1.4-1.4S9.1,41.6,9.1,42.4z"/>
<g>
	<path class="st3" d="M44.5,14.5h-3.1c-0.8,0-1.4-0.6-1.4-1.4c0-0.8,0.6-1.4,1.4-1.4h3.1c0.8,0,1.4,0.6,1.4,1.4
		C45.9,13.9,45.2,14.5,44.5,14.5z"/>
	<path class="st3" d="M23,14.5h-3.1c-0.8,0-1.4-0.6-1.4-1.4c0-0.8,0.6-1.4,1.4-1.4H23c0.8,0,1.4,0.6,1.4,1.4
		C24.4,13.9,23.8,14.5,23,14.5z"/>
	<path class="st3" d="M27.6,6.5c-0.5,0-1-0.3-1.2-0.7l-1.5-2.7c-0.4-0.7-0.2-1.6,0.5-2c0.7-0.4,1.6-0.2,2,0.5l1.5,2.7
		c0.4,0.7,0.2,1.6-0.5,2C28.1,6.5,27.8,6.5,27.6,6.5z"/>
	<path class="st3" d="M36.8,6.5c-0.2,0-0.5-0.1-0.7-0.2c-0.7-0.4-0.9-1.3-0.5-2l1.5-2.7c0.4-0.7,1.3-0.9,2-0.5
		c0.7,0.4,0.9,1.3,0.5,2L38,5.8C37.8,6.3,37.3,6.5,36.8,6.5z"/>
</g>
<g>
	<path id="SVGCleanerId_0_1_" class="st2" d="M9.1,42.4V50H6.2v-7.6c0-0.8,0.6-1.4,1.4-1.4S9.1,41.6,9.1,42.4z"/>
</g>
<path class="st4" d="M13.8,22.5H1.5c-0.8,0-1.4,0.6-1.4,1.4v24.5c0,0.8,0.6,1.4,1.4,1.5h9.2c1.8,0,3.3-1,4-2.5
	c0.3-0.6,0.5-1.3,0.5-2V24C15.2,23.2,14.6,22.5,13.8,22.5z"/>
<path class="st3" d="M9.1,42.3V50H6.2v-7.7c0-0.8,0.6-1.4,1.4-1.4S9.1,41.5,9.1,42.3z"/>
</svg>
