<?xml version="1.0" encoding="utf-8"?>
<!-- Generator: Adobe Illustrator 26.1.0, SVG Export Plug-In . SVG Version: 6.00 Build 0)  -->
<svg version="1.1" id="Ebene_1" xmlns="http://www.w3.org/2000/svg" xmlns:xlink="http://www.w3.org/1999/xlink" x="0px" y="0px"
	 viewBox="0 0 50 50" style="enable-background:new 0 0 50 50;" xml:space="preserve">
<style type="text/css">
	.st0{fill:#E09424;}
	.st1{fill:#FFCB8D;}
	.st2{fill:#FCB131;}
</style>
<path class="st0" d="M30.2,42.2v3.2c0,2.4-1.9,4.3-4.3,4.3h-2.9c-2.4,0-4.3-1.9-4.3-4.3v-3.2c0-0.8,0.6-1.5,1.4-1.5h8.6
	C29.6,40.7,30.2,41.4,30.2,42.2z"/>
<path class="st0" d="M30.2,42.2v3.2c0,2.4-1.9,4.3-4.3,4.3h-1.4v-9h4.3C29.6,40.7,30.2,41.4,30.2,42.2z"/>
<path class="st1" d="M24.5,12.5c-1,0-2.1,0.1-3.1,0.4c-4.6,1.1-8.3,4.7-9.4,9.2c-1.1,4.6,0.2,9.2,3.5,12.4c1.2,1.2,1.9,2.9,1.9,4.8
	v0.3c0,2.4,1.9,4.4,4.3,4.4h5.7c2.4,0,4.3-2,4.3-4.4v-0.3c0-1.9,0.7-3.7,2-4.9c2.4-2.4,3.7-5.7,3.7-9.1
	C37.4,18.2,31.5,12.5,24.5,12.5z"/>
<path class="st2" d="M37.4,25.4c0,3.4-1.3,6.7-3.7,9.1c-1.3,1.2-2,3-2,4.9v0.3c0,2.4-1.9,4.4-4.3,4.4h-2.9V12.5
	C31.5,12.5,37.4,18.2,37.4,25.4z"/>
<g>
	<path class="st2" d="M11.4,14.3l-4-4c-0.6-0.6-0.6-1.5,0-2s1.5-0.6,2,0l4,4c0.6,0.6,0.6,1.5,0,2C12.9,14.8,12,14.8,11.4,14.3z"/>
	<path class="st2" d="M7.4,26.8H1.6c-0.8,0-1.4-0.6-1.4-1.4c0-0.8,0.6-1.4,1.4-1.4h5.8c0.8,0,1.4,0.6,1.4,1.4
		C8.8,26.2,8.2,26.8,7.4,26.8z"/>
</g>
<g>
	<path class="st2" d="M47.5,26.8h-5.8c-0.8,0-1.4-0.6-1.4-1.4c0-0.8,0.6-1.4,1.4-1.4h5.8c0.8,0,1.4,0.6,1.4,1.4
		C48.9,26.2,48.3,26.8,47.5,26.8z"/>
	<path class="st2" d="M35.6,14.3c-0.6-0.6-0.6-1.5,0-2l4-4c0.6-0.6,1.5-0.6,2,0s0.6,1.5,0,2l-4,4C37.1,14.8,36.2,14.8,35.6,14.3z"/>
</g>
<path class="st2" d="M25.9,2.4v5.8c0,0.8-0.6,1.4-1.4,1.4S23.1,9,23.1,8.2V2.4c0-0.8,0.6-1.4,1.4-1.4S25.9,1.6,25.9,2.4z"/>
<path class="st2" d="M25.9,2.4v5.8c0,0.8-0.6,1.4-1.4,1.4V1C25.3,1,25.9,1.6,25.9,2.4z"/>
</svg>
