<?xml version="1.0" encoding="utf-8"?>
<!-- Generator: Adobe Illustrator 26.1.0, SVG Export Plug-In . SVG Version: 6.00 Build 0)  -->
<svg version="1.1" id="Ebene_1" xmlns="http://www.w3.org/2000/svg" xmlns:xlink="http://www.w3.org/1999/xlink" x="0px" y="0px"
	 viewBox="0 0 50 50" style="enable-background:new 0 0 50 50;" xml:space="preserve">
<style type="text/css">
	.st0{fill:#878787;}
</style>
<g>
	<path class="st0" d="M48,34c1-1.3,1.5-2.7,1.5-4.2c-0.1-1.6-0.8-2.8-1.4-3.6c0.7-1.7,0.9-4.4-1.3-6.4c-1.7-1.5-4.5-2.2-8.4-2
		c-2.7,0.1-5.1,0.6-5.1,0.7h0c-0.5,0.1-1.1,0.2-1.6,0.3c0-0.7,0.1-2.3,1.3-6.1c1.5-4.5,1.4-7.9-0.3-10.1C30.8,0.2,28.1,0,27.2,0
		c-0.8,0-1.5,0.3-2,0.9c-1.2,1.3-1,3.8-0.9,5c-1.4,3.7-5.2,12.8-8.5,15.3c-0.1,0-0.1,0.1-0.2,0.1c-1,1-1.6,2.1-2,3.1
		c-0.6-0.3-1.3-0.5-2.1-0.5H5.2c-2.4,0-4.3,2-4.3,4.3v17c0,2.4,2,4.3,4.3,4.3h6.4c0.9,0,1.8-0.3,2.5-0.8l2.5,0.3
		c0.4,0.1,7.1,0.9,13.9,0.8c1.2,0.1,2.4,0.1,3.5,0.1c1.9,0,3.5-0.1,4.9-0.4c3.2-0.7,5.4-2,6.5-4c0.8-1.5,0.8-3,0.7-4
		c2.1-1.9,2.4-4,2.4-5.4C48.3,35.2,48.2,34.5,48,34z M5.2,46.8c-0.8,0-1.5-0.7-1.5-1.5v-17c0-0.8,0.7-1.5,1.5-1.5h6.4
		c0.8,0,1.5,0.7,1.5,1.5v17c0,0.8-0.7,1.5-1.5,1.5L5.2,46.8L5.2,46.8z M45.3,32.8c-0.4,0.5-0.5,1.2-0.2,1.7c0,0,0.4,0.7,0.5,1.7
		c0.1,1.4-0.6,2.6-2,3.6c-0.5,0.4-0.7,1-0.5,1.6c0,0,0.4,1.4-0.3,2.7c-0.7,1.3-2.3,2.2-4.6,2.7c-1.9,0.4-4.5,0.5-7.6,0.2
		c0,0-0.1,0-0.1,0c-6.7,0.1-13.5-0.7-13.6-0.7h0l-1.1-0.1c0.1-0.3,0.1-0.6,0.1-0.9v-17c0-0.4-0.1-0.9-0.2-1.3
		c0.2-0.7,0.7-2.3,1.9-3.6c4.7-3.7,9.3-16.3,9.5-16.8c0.1-0.2,0.1-0.5,0.1-0.7c-0.2-1.2-0.1-2.6,0.1-3c0.6,0,2,0.2,2.9,1.4
		c1.1,1.5,1,4.1-0.1,7.6c-1.8,5.3-1.9,8.1-0.5,9.4c0.7,0.6,1.6,0.6,2.3,0.4c0.6-0.1,1.2-0.3,1.8-0.4c0,0,0.1,0,0.1,0
		c3.2-0.7,9-1.1,11,0.7c1.7,1.5,0.5,3.6,0.4,3.8c-0.4,0.6-0.3,1.3,0.3,1.8c0,0,1.1,1,1.2,2.4C46.6,30.9,46.2,31.8,45.3,32.8z"/>
</g>
<g>
	<path class="st0" d="M48,34c1-1.3,1.5-2.7,1.5-4.2c-0.1-1.6-0.8-2.8-1.4-3.6c0.7-1.7,0.9-4.4-1.3-6.4c-1.7-1.5-4.5-2.2-8.4-2
		c-2.7,0.1-5.1,0.6-5.1,0.7h0c-0.5,0.1-1.1,0.2-1.6,0.3c0-0.7,0.1-2.3,1.3-6.1c1.5-4.5,1.4-7.9-0.3-10.1C30.8,0.2,28.1,0,27.2,0
		c-0.8,0-1.5,0.3-2,0.9c-1.2,1.3-1,3.8-0.9,5c-1.4,3.7-5.2,12.8-8.5,15.3c-0.1,0-0.1,0.1-0.2,0.1c-1,1-1.6,2.1-2,3.1
		c-0.6-0.3-1.3-0.5-2.1-0.5H5.2c-2.4,0-4.3,2-4.3,4.3v17c0,2.4,2,4.3,4.3,4.3h6.4c0.9,0,1.8-0.3,2.5-0.8l2.5,0.3
		c0.4,0.1,7.1,0.9,13.9,0.8c1.2,0.1,2.4,0.1,3.5,0.1c1.9,0,3.5-0.1,4.9-0.4c3.2-0.7,5.4-2,6.5-4c0.8-1.5,0.8-3,0.7-4
		c2.1-1.9,2.4-4,2.4-5.4C48.3,35.2,48.2,34.5,48,34z M5.2,46.8c-0.8,0-1.5-0.7-1.5-1.5v-17c0-0.8,0.7-1.5,1.5-1.5h6.4
		c0.8,0,1.5,0.7,1.5,1.5v17c0,0.8-0.7,1.5-1.5,1.5L5.2,46.8L5.2,46.8z M45.3,32.8c-0.4,0.5-0.5,1.2-0.2,1.7c0,0,0.4,0.7,0.5,1.7
		c0.1,1.4-0.6,2.6-2,3.6c-0.5,0.4-0.7,1-0.5,1.6c0,0,0.4,1.4-0.3,2.7c-0.7,1.3-2.3,2.2-4.6,2.7c-1.9,0.4-4.5,0.5-7.6,0.2
		c0,0-0.1,0-0.1,0c-6.7,0.1-13.5-0.7-13.6-0.7h0l-1.1-0.1c0.1-0.3,0.1-0.6,0.1-0.9v-17c0-0.4-0.1-0.9-0.2-1.3
		c0.2-0.7,0.7-2.3,1.9-3.6c4.7-3.7,9.3-16.3,9.5-16.8c0.1-0.2,0.1-0.5,0.1-0.7c-0.2-1.2-0.1-2.6,0.1-3c0.6,0,2,0.2,2.9,1.4
		c1.1,1.5,1,4.1-0.1,7.6c-1.8,5.3-1.9,8.1-0.5,9.4c0.7,0.6,1.6,0.6,2.3,0.4c0.6-0.1,1.2-0.3,1.8-0.4c0,0,0.1,0,0.1,0
		c3.2-0.7,9-1.1,11,0.7c1.7,1.5,0.5,3.6,0.4,3.8c-0.4,0.6-0.3,1.3,0.3,1.8c0,0,1.1,1,1.2,2.4C46.6,30.9,46.2,31.8,45.3,32.8z"/>
</g>
</svg>
