<?xml version="1.0" encoding="utf-8"?>
<!-- Generator: Adobe Illustrator 26.1.0, SVG Export Plug-In . SVG Version: 6.00 Build 0)  -->
<svg version="1.1" id="Ebene_1" xmlns="http://www.w3.org/2000/svg" xmlns:xlink="http://www.w3.org/1999/xlink" x="0px" y="0px"
	 viewBox="0 0 50 50" style="enable-background:new 0 0 50 50;" xml:space="preserve">
<style type="text/css">
	.st0{fill:#FCB131;}
	.st1{fill:#9B9B9B;}
	.st2{fill:#FFCB8D;}
</style>
<g>
	<path class="st0" d="M23.9,27.9c-0.7-1.3-2-1.4-3.3-0.8c-0.2,0.1-2.4,1.1-4.5,3.2c-0.2,0.2-0.5,0.1-0.5-0.2c0-2.9,0-13.3,0-13.3
		c0-1-0.7-1.8-1.7-1.9c-1.1-0.1-2.1,0.8-2.1,1.9c0,0,0-1.7,0-1.6c0-1-0.8-1.9-1.8-2c-1.1,0-2,0.8-2,1.9c0,1,0,0.7,0,1.7
		c0-1.1-0.9-2-2.1-1.9c-1,0.1-1.7,0.9-1.7,1.9v3.1c0-1.1-0.9-2-2.1-1.9c-1,0.1-1.7,1-1.7,1.9c0,0.7,0,13.9,0,14.7
		c0,0.3-0.3,2.5,1.4,4.7c0.4,0.6,0.7,1.3,0.7,2.1c0,0.8,0,7.1,0,6.8c0,0.9,0.7,1.6,1.6,1.6h9c0.9,0,1.6-0.7,1.6-1.6v-7.5
		c0-0.2,0.1-0.4,0.3-0.6c0.6-0.5,2.2-1.9,2.6-3.9c0.1-0.5,0.3-1,0.5-1.4c1.4-2.4,4.5-4.5,4.6-4.5C24,29.5,24.5,29.1,23.9,27.9z"/>
	<path class="st0" d="M48.2,18c-1.1-0.1-2.1,0.8-2.1,1.9v-3.1c0-1-0.7-1.8-1.7-1.9c-1.1-0.1-2.1,0.8-2.1,1.9c0-0.6,0-1.1,0-1.7
		c0-1.1-0.9-1.9-2-1.9c-1,0-1.8,0.9-1.8,2c0,0.9,0,0.7,0,1.6c0-1.1-0.9-2-2.1-1.9c-1,0.1-1.7,0.9-1.7,1.9c0,4.1,0,9.9,0,14
		c-2.2-2.4-4.8-3.6-5-3.7c-1.3-0.6-2.6-0.5-3.3,0.8c-0.6,1.2-0.1,1.6,1.2,2.5c0.1,0,3.2,2.1,4.6,4.5c0.7,1.2,0.3,1.7,1.2,3.2
		c1.2,2,2.2,1.8,2.2,2.9v7.4c0,0.9,0.7,1.6,1.6,1.6h9c0.9,0,1.6-0.7,1.6-1.6c0-0.3,0-7.2,0-6.8c0-0.8,0.3-1.5,0.7-2.1
		c0.9-1.2,1.4-2.6,1.4-4.2c0-0.5,0-15.5,0-15.2C49.9,19,49.2,18.1,48.2,18z"/>
</g>
<g>
	<path class="st1" d="M28,8.4v-6c0-1,1-1.8,2-1.6l0,0c0.9,0.2,1.4,1.2,1,2.1l-2.7,5.5C28.2,8.5,28,8.5,28,8.4z"/>
	<path class="st1" d="M32.8,10.2l3.9-4.6c0.7-0.8,1.9-0.7,2.5,0.1l0,0c0.6,0.8,0.3,1.9-0.6,2.3l-5.6,2.4
		C32.8,10.5,32.7,10.4,32.8,10.2z"/>
	<path class="st1" d="M22.3,8.4V2.3c0-1-0.9-1.7-1.8-1.5l0,0c-1,0.2-1.5,1.3-1.1,2.2l2.7,5.4C22.1,8.5,22.3,8.5,22.3,8.4z"/>
	<path class="st1" d="M17.5,10.2l-3.9-4.6c-0.7-0.8-1.9-0.7-2.5,0.1l0,0c-0.6,0.8-0.3,1.9,0.6,2.3l5.6,2.4
		C17.5,10.5,17.6,10.4,17.5,10.2z"/>
</g>
<g>
	<path class="st2" d="M22.8,27c-0.7-0.3-1.3-0.2-2,0.1c-0.8,0.3-2.2,1.2-3,1.8l0,0c-0.6,0.4-1.2,0.9-1.8,1.6
		c-0.2,0.2-0.5,0.1-0.5-0.2l0,0l0,0c0,1,1.2,1.4,1.8,0.7l0,0C19.3,28.8,21.8,27.3,22.8,27z"/>
	<path class="st2" d="M13.7,14.9L13.7,14.9c-1,0-1.8,0.9-1.8,1.9V26c0,0.5,0.4,1,1,1c0.5,0,0.9-0.4,0.9-0.9v-9.3
		c0-0.5,0.2-1,0.5-1.3c0.1-0.1,0.3-0.2,0.4-0.3l0,0c-0.1,0-0.1-0.1-0.2-0.1l0,0c-0.1,0-0.1,0-0.2-0.1c0,0,0,0,0,0c0,0-0.1,0-0.2,0
		c0,0,0,0,0,0c-0.1,0-0.1,0-0.2,0C13.8,14.9,13.7,14.9,13.7,14.9z"/>
	<path class="st2" d="M4.3,48.4c0-0.2,0-6.1,0-6.8c0-0.8-0.3-1.5-0.7-2.1c-1.7-2.2-1.4-4.5-1.4-4.7c0-0.8,0-14,0-14.7
		c0-0.7,0.4-1.4,1-1.7c-1.3-0.7-2.8,0.2-2.8,1.7c0,0.7,0,13.9,0,14.7c0,0.3-0.3,2.5,1.4,4.7c0.4,0.6,0.7,1.3,0.7,2.1s0,6.6,0,6.8
		c0,0.9,0.7,1.6,1.6,1.6h1.8C5,50,4.3,49.3,4.3,48.4z"/>
	<path class="st2" d="M8.9,26.4c0.5,0,0.9-0.4,0.9-0.9c0-2.1,0-7.9,0-10.4c0-0.7,0.4-1.3,1-1.7l0,0c-0.1,0-0.1-0.1-0.2-0.1
		c0,0,0,0,0,0c0,0-0.1,0-0.1,0c0,0-0.1,0-0.1,0c0,0,0,0-0.1,0c0,0-0.1,0-0.1,0c0,0,0,0,0,0c-0.1,0-0.1,0-0.2,0l0,0
		c-1.1,0-2,0.8-2,1.9v10.4C8,26,8.4,26.4,8.9,26.4z"/>
	<path class="st2" d="M5.1,27L5.1,27C5.6,27,6,26.6,6,26.1c0-0.9,0-8.3,0-9.3c0-0.7,0.4-1.4,1-1.7c0,0-0.4-0.3-1-0.2l0,0
		c-1.1,0-1.8,0.9-1.8,1.9l0,0c0,1,0,8.2,0,9.3C4.2,26.6,4.6,27,5.1,27z"/>
	<path class="st2" d="M39.4,27.7c0.5,0,0.9-0.4,0.9-0.9c0-2.7,0-9.1,0-11.7c0-0.7,0.4-1.3,1-1.7c0,0-0.1-0.1-0.2-0.1
		c-1.2-0.5-2.6,0.4-2.6,1.8v11.7C38.5,27.3,38.9,27.7,39.4,27.7z"/>
	<path class="st2" d="M43.2,27L43.2,27c0.5,0,0.9-0.4,0.9-0.9c0-0.9,0-8.3,0-9.3c0-0.7,0.4-1.4,1-1.7c0,0-0.4-0.3-1-0.2l0,0
		c-1.1,0-1.8,0.9-1.8,1.9l0,0c0,1.2,0,7.9,0,9.3C42.3,26.6,42.7,27,43.2,27z"/>
	<path class="st2" d="M47.1,27.7c0.5,0,0.8-0.4,0.8-0.8c0-3.3,0-6.5,0-6.9c0-0.7,0.4-1.4,1-1.7c-1.3-0.7-2.8,0.2-2.8,1.7v6.7
		C46.1,27.2,46.6,27.7,47.1,27.7L47.1,27.7z"/>
	<path class="st2" d="M37.6,48.4c0-7.8,0-7.4,0-7.5c-0.1-0.7-0.9-0.8-0.9-0.9l0,0c-2-0.4-3.3-1.9-3.3-1.9c1.2,2,2.2,1.8,2.2,2.9v7.4
		c0,0.9,0.7,1.6,1.6,1.6h2C38.3,50,37.6,49.3,37.6,48.4z"/>
	<path class="st2" d="M34.7,16.8V27l0,0v3.8H35c0.9,0,1.6-0.7,1.6-1.6c0-4.4,0-8,0-12.4c0-0.7,0.4-1.3,0.9-1.7
		C36.3,14.4,34.7,15.3,34.7,16.8z"/>
</g>
</svg>
