<?xml version="1.0" encoding="utf-8"?>
<!-- Generator: Adobe Illustrator 26.1.0, SVG Export Plug-In . SVG Version: 6.00 Build 0)  -->
<svg version="1.1" id="Ebene_1" xmlns="http://www.w3.org/2000/svg" xmlns:xlink="http://www.w3.org/1999/xlink" x="0px" y="0px"
	 viewBox="0 0 50 50" style="enable-background:new 0 0 50 50;" xml:space="preserve">
<style type="text/css">
	.st0{fill:#FFCB8D;}
	.st1{fill:#FCB131;}
	.st2{fill:#E09424;}
	.st3{fill:#A06920;}
</style>
<circle class="st0" cx="24.9" cy="25" r="25"/>
<g>
	<path class="st1" d="M28.6,46.4c-13.8,0-25-11.2-25-25c0-6,2.1-11.5,5.6-15.8C3.5,10.2-0.1,17.2-0.1,25c0,13.8,11.2,25,25,25
		c7.8,0,14.8-3.6,19.4-9.2C40,44.3,34.5,46.4,28.6,46.4z"/>
	<path class="st1" d="M17.7,50L17.7,50c0.9,0,1.6-0.7,1.6-1.6l0,0c0-0.9-0.7-1.6-1.6-1.6l0,0h0.8l0,0c0.9,0,1.6-0.7,1.6-1.6l0,0
		c0-0.9-0.7-1.6-1.6-1.6l0,0h0.8c0.9,0,1.6-0.7,1.6-1.6l0,0c0-0.9-0.7-1.6-1.6-1.6h8.9c0.9,0,1.6-0.7,1.6-1.6l0,0
		c0-0.9-0.7-1.6-1.6-1.6H13.6c-1.3,0-2.4-1.1-2.4-2.4v-4.8c0-0.9-0.7-1.6-1.6-1.6l0,0c-0.9,0-1.6,0.7-1.6,1.6v3.9
		c0,1.1-0.4,2.2-1.1,3l-0.8,0.9c-0.9,1.1-1.4,2.6-1.4,4v3.4c0,2.7,2.2,4.8,4.8,4.8L17.7,50L17.7,50L17.7,50z"/>
</g>
<g>
	<path class="st2" d="M19.3,48.4h-1.6H9.6c-1.8,0-3.2-1.4-3.2-3.2v-3.4c0-1.1,0.4-2.2,1.1-3l0.8-0.9c0.9-1.1,1.4-2.6,1.4-4v-5.6
		c-0.9,0-1.6,0.7-1.6,1.6v3.9c0,1.1-0.4,2.2-1.1,3l-0.8,0.9c-0.9,1.1-1.4,2.6-1.4,4v3.4c0,2.7,2.2,4.8,4.8,4.8h8.1
		C18.6,50,19.3,49.3,19.3,48.4z"/>
	<path class="st2" d="M29.8,38.7H18.5c-0.4,0-0.8,0.4-0.8,0.8c0,0.4,0.4,0.8,0.8,0.8h0.8h8.9C29.1,40.3,29.8,39.6,29.8,38.7z"/>
	<path class="st2" d="M16.9,42.7c0,0.4,0.4,0.8,0.8,0.8h0.8h0.8c0.9,0,1.6-0.7,1.6-1.6h-3.2C17.2,41.9,16.9,42.3,16.9,42.7z"/>
	<path class="st2" d="M16.1,46c0,0.4,0.4,0.8,0.8,0.8h0.8h0.8c0.9,0,1.6-0.7,1.6-1.6h-3.2C16.4,45.2,16.1,45.5,16.1,46z"/>
</g>
<g>
	<path class="st2" d="M29,33.3c-0.2,0-0.3,0-0.5-0.1c-0.1,0-5.6-2.8-11.7-2.9c-0.6,0-1-0.5-1-1c0-0.6,0.5-1,1-1
		c6.6,0.2,12.3,3,12.6,3.1c0.5,0.3,0.7,0.9,0.4,1.4C29.7,33.1,29.3,33.3,29,33.3z"/>
	<path class="st2" d="M18.5,13.1c-0.2,0-0.4-0.1-0.6-0.2c-0.2-0.1-3.6-2.8-7.8-0.7c-0.5,0.2-1.1,0-1.4-0.5c-0.2-0.5,0-1.1,0.5-1.4
		c5.4-2.7,9.8,0.8,10,0.9c0.4,0.3,0.5,1,0.2,1.4C19.1,13,18.8,13.1,18.5,13.1z"/>
	<path class="st2" d="M29.8,14.7c-0.5,0-0.9-0.3-1-0.8c-0.1-0.5,0.2-1.1,0.8-1.2l8.1-1.6c0.5-0.1,1.1,0.2,1.2,0.8
		c0.1,0.5-0.2,1.1-0.8,1.2L30,14.7C29.9,14.7,29.8,14.7,29.8,14.7z"/>
</g>
<path class="st3" d="M14.8,20.3L14.8,20.3c-1.1-0.1-1.9-1.1-1.8-2.2l0.2-1.6c0.1-1.1,1.1-1.9,2.2-1.8l0,0c1.1,0.1,1.9,1.1,1.8,2.2
	L17,18.6C16.9,19.7,15.9,20.5,14.8,20.3z"/>
<path class="st2" d="M15.5,14.7c-0.1,0-0.3,0-0.4,0l-0.3,2.8c-0.1,0.7,0.4,1.3,1.1,1.3c0.7,0.1,1.3-0.4,1.3-1.1l0.1-0.8
	C17.4,15.9,16.6,14.8,15.5,14.7z"/>
<path class="st3" d="M31.7,22.1L31.7,22.1c-1.1-0.1-1.9-1.1-1.8-2.2l0.2-1.6c0.1-1.1,1.1-1.9,2.2-1.8l0,0c1.1,0.1,1.9,1.1,1.8,2.2
	l-0.2,1.6C33.8,21.4,32.8,22.2,31.7,22.1z"/>
<path class="st2" d="M32.4,16.5c-0.1,0-0.3,0-0.4,0l-0.3,2.8c-0.1,0.7,0.4,1.3,1.1,1.3s1.3-0.4,1.3-1.1l0.1-0.8
	C34.2,17.6,33.5,16.6,32.4,16.5z"/>
</svg>
